<?xml version="1.0" encoding="UTF-8" standalone="no"?>
<!-- Created with Inkscape (http://www.inkscape.org/) -->

<svg
   width="233.01645mm"
   height="218.86398mm"
   viewBox="0 0 233.01645 218.86399"
   version="1.1"
   id="svg5"
   inkscape:version="1.1.2 (b8e25be833, 2022-02-05)"
   sodipodi:docname="flordeliz2.svg"
   xmlns:inkscape="http://www.inkscape.org/namespaces/inkscape"
   xmlns:sodipodi="http://sodipodi.sourceforge.net/DTD/sodipodi-0.dtd"
   xmlns="http://www.w3.org/2000/svg"
   xmlns:svg="http://www.w3.org/2000/svg">
  <sodipodi:namedview
     id="namedview7"
     pagecolor="#ffffff"
     bordercolor="#666666"
     borderopacity="1.0"
     inkscape:pageshadow="2"
     inkscape:pageopacity="0.0"
     inkscape:pagecheckerboard="0"
     inkscape:document-units="mm"
     showgrid="false"
     inkscape:zoom="0.54660447"
     inkscape:cx="223.19613"
     inkscape:cy="451.88068"
     inkscape:window-width="1350"
     inkscape:window-height="729"
     inkscape:window-x="0"
     inkscape:window-y="0"
     inkscape:window-maximized="0"
     inkscape:current-layer="layer1"
     inkscape:snap-global="false" />
  <defs
     id="defs2" />
  <g
     inkscape:label="Camada 1"
     inkscape:groupmode="layer"
     id="layer1"
     transform="translate(-3.1884773,-6.069259)">
    <path
       id="path213"
       style="fill:#ff2c4e;fill-opacity:1;fill-rule:evenodd;stroke:#ff2c4e;stroke-width:0.664998;stroke-linejoin:round;stroke-opacity:1"
       inkscape:transform-center-x="-0.095966185"
       inkscape:transform-center-y="-2.4034781"
       d="m 123.99096,101.21452 c -1.17703,2.07809 -5.34342,2.22695 -7.04349,0.93392 -2.76445,-2.10258 -5.05401,-10.440363 -6.89707,-16.854211 -1.30085,-4.526939 -3.05344,-13.135595 -3.12783,-16.24081 -0.15113,-6.308416 8.83132,-21.096915 11.82571,-21.023131 4.07803,0.100485 12.61571,13.84373 12.84927,19.237211 0.29066,6.712104 -3.05397,25.91094 -7.60659,33.947021 z"
       sodipodi:nodetypes="sssssss" />
    <path
       id="path4613"
       style="fill:#b78327;fill-opacity:1;fill-rule:evenodd;stroke:#ff2c4e;stroke-width:0.534064;stroke-linejoin:round;stroke-opacity:1"
       inkscape:transform-center-x="-0.082790344"
       inkscape:transform-center-y="-1.7983039"
       d="m 123.20768,96.167009 c -1.01482,1.554842 -4.60619,1.66622 -6.07158,0.698766 -2.38282,-1.57317 -4.35639,-7.811581 -5.94509,-12.610476 -1.12132,-3.387093 -2.63203,-9.828171 -2.69615,-12.151521 -0.13026,-4.720009 8.15895,-10.204899 10.73998,-10.149697 3.51543,0.07518 10.32827,4.778003 10.52972,8.813454 0.25045,5.022053 -2.6326,19.386801 -6.55688,25.399474 z"
       sodipodi:nodetypes="sssssss" />
    <path
       id="path4809"
       style="fill:#ff2c4e;fill-opacity:1;fill-rule:evenodd;stroke:#ff2c4e;stroke-width:0.664998;stroke-linejoin:round;stroke-opacity:1"
       inkscape:transform-center-x="-1.8833608"
       inkscape:transform-center-y="-0.78007157"
       d="m 130.99181,110.56025 c -2.36772,0.0339 -4.61528,-3.51847 -4.38025,-5.65673 0.38186,-3.47698 6.31192,-9.71452 10.83195,-14.583998 3.19032,-3.43691 9.62416,-9.344873 12.22885,-10.990302 5.29156,-3.342808 22.44899,-3.050725 23.91049,-0.406285 1.99038,3.601451 -5.35909,18.030238 -9.83006,20.979087 -5.56408,3.669828 -23.6048,10.531058 -32.76098,10.658228 z"
       sodipodi:nodetypes="sssssss" />
    <path
       id="path4811"
       style="fill:#b78327;fill-opacity:1;fill-rule:evenodd;stroke:#ff2cef;stroke-width:0.534064;stroke-linejoin:round;stroke-opacity:1"
       inkscape:transform-center-x="-1.8314489"
       inkscape:transform-center-y="-1.82213"
       d="m 133.44173,108.53943 c -1.83975,-0.092 -3.76262,-3.16188 -3.68535,-4.93015 0.12589,-2.87535 4.43018,-7.769116 7.70515,-11.595075 2.31172,-2.700367 7.02409,-7.294372 8.96864,-8.532874 3.95041,-2.516091 12.83764,1.908439 14.10453,4.183656 1.72544,3.098594 1.19137,11.423825 -2.14028,13.653313 -4.14632,2.77455 -17.83821,7.57689 -24.95269,7.22113 z"
       sodipodi:nodetypes="sssssss" />
    <path
       id="path4813"
       style="fill:#ff2c4e;fill-opacity:1;fill-rule:evenodd;stroke:#ff2c4e;stroke-width:0.664998;stroke-linejoin:round;stroke-opacity:1"
       inkscape:transform-center-x="-0.77379419"
       inkscape:transform-center-y="1.7144819"
       d="m 123.76841,118.62474 c -0.31611,-2.37341 2.90058,-5.05602 5.0277,-5.07625 3.45846,-0.035 10.29155,5.17442 15.61299,9.12978 3.75577,2.79159 10.32566,8.54434 12.25288,10.96291 3.91515,4.91296 5.06282,22.80526 2.64221,24.5898 -3.2965,2.43021 -17.71842,-3.84986 -21.14852,-7.98593 -4.26884,-5.14735 -13.16533,-22.44121 -14.38725,-31.62029 z"
       sodipodi:nodetypes="ssssssss" />
    <path
       id="path4815"
       style="fill:#b78327;fill-opacity:1;fill-rule:evenodd;stroke:#ff2c4e;stroke-width:0.534064;stroke-linejoin:round;stroke-opacity:1"
       inkscape:transform-center-x="-1.5507154"
       inkscape:transform-center-y="1.9777552"
       d="m 125.07916,119.68579 c -0.12987,-1.85861 2.65292,-4.15726 4.39778,-4.29154 2.83751,-0.218 8.15663,3.51755 12.30458,6.3481 2.9276,1.9976 8.0014,6.17908 9.45015,7.98308 2.94299,3.66537 0.90789,13.7486 -1.17345,15.29341 -2.83485,2.10366 -11.38129,1.93637 -13.96878,-1.14199 -3.2204,-3.83116 -10.50703,-17.00457 -11.0103,-24.1911 z"
       sodipodi:nodetypes="ssssssss" />
    <path
       id="path4817"
       style="fill:#ff2c4e;fill-opacity:1;fill-rule:evenodd;stroke:#ff2c4e;stroke-width:0.664998;stroke-linejoin:round;stroke-opacity:1"
       inkscape:transform-center-x="1.4656624"
       inkscape:transform-center-y="-1.4362701"
       d="m 112.99247,104.44915 c 1.03012,2.15656 -1.20226,5.7177 -3.21756,6.406 -3.27705,1.11918 -11.372327,-1.68068 -17.645877,-3.76616 -4.42791,-1.47193 -12.440811,-4.87291 -15.015995,-6.56517 -5.231652,-3.437914 -12.270682,-18.979012 -10.518754,-21.436296 2.38592,-3.346561 18.470569,-3.017606 23.002409,-0.165405 5.63981,3.549541 19.412207,17.187486 23.395777,25.527021 z"
       sodipodi:nodetypes="ssssssss" />
    <path
       id="path4819"
       style="fill:#b78327;fill-opacity:1;fill-rule:evenodd;stroke:#ff2c4e;stroke-width:0.534064;stroke-linejoin:round;stroke-opacity:1"
       inkscape:transform-center-x="1.2083899"
       inkscape:transform-center-y="-2.5581497"
       d="m 110.1463,103.05735 c 0.69507,1.72535 -1.24306,4.78541 -2.86019,5.46181 -2.62964,1.09988 -8.833767,-0.77778 -13.646157,-2.16292 -3.39662,-0.97779 -9.504618,-3.35603 -11.436179,-4.61512 -3.924079,-2.557928 -3.715375,-12.574572 -2.212087,-14.697488 2.047331,-2.891151 9.732876,-5.919968 13.138646,-3.808137 4.23842,2.628182 14.328067,13.149835 17.015977,19.821835 z"
       sodipodi:nodetypes="sssssss" />
    <path
       id="path4821"
       style="fill:#ff2c4e;fill-opacity:1;fill-rule:evenodd;stroke:#ff2c4e;stroke-width:0.664998;stroke-linejoin:round;stroke-opacity:1"
       inkscape:transform-center-x="-3.3773226"
       inkscape:transform-center-y="7.1920642"
       d="m 113.23597,113.91866 c 2.203,-0.8784 5.54757,1.6385 6.07608,3.72268 0.85924,3.38871 -2.50422,11.34534 -5.02814,17.5173 -1.7812,4.3565 -5.73133,12.18528 -7.59169,14.65655 -3.7794,5.02054 -19.928587,10.88928 -22.220777,8.93917 -3.121753,-2.65584 -1.296733,-18.78162 1.85303,-23.14023 3.91982,-5.42397 18.392127,-18.29914 26.911217,-21.69556 z"
       sodipodi:nodetypes="ssssssss" />
    <path
       id="path4823"
       style="fill:#b78327;fill-opacity:1;fill-rule:evenodd;stroke:#ff2c40;stroke-width:0.534064;stroke-linejoin:round;stroke-opacity:1"
       inkscape:transform-center-x="-5.6846108"
       inkscape:transform-center-y="2.7401871"
       d="m 111.65168,116.68576 c 1.75296,-0.57253 4.6255,1.61026 5.17188,3.29176 0.88858,2.7342 -1.42479,8.85218 -3.14924,13.60264 -1.21716,3.35321 -4.017,9.33682 -5.40231,11.19117 -2.81434,3.7674 -12.674557,2.81046 -14.655597,1.13621 -2.69797,-2.2806 -5.11159,-10.25814 -2.77539,-13.53605 2.90705,-4.0793 14.032457,-13.47188 20.810937,-15.68581 z"
       sodipodi:nodetypes="ssssssss" />
    <text
       xml:space="preserve"
       style="font-style:normal;font-variant:normal;font-weight:bold;font-stretch:normal;font-size:56.9006px;line-height:1.25;font-family:'Californian FB';-inkscape-font-specification:'Californian FB Bold';fill:#ff2a2a;fill-opacity:1;stroke:none;stroke-width:0.264582"
       x="1.6116931"
       y="200.73839"
       id="text2957"
       transform="scale(0.89651154,1.1154346)"><tspan
         sodipodi:role="line"
         id="tspan2955"
         style="font-style:normal;font-variant:normal;font-weight:bold;font-stretch:normal;font-size:56.9006px;font-family:'Californian FB';-inkscape-font-specification:'Californian FB Bold';fill:#ff2a2a;stroke-width:0.264582"
         x="1.6116931"
         y="200.73839">Flor de Liz</tspan></text>
  </g>
</svg>
