<?xml version="1.0" encoding="UTF-8" standalone="no"?>
<!-- Created with Inkscape (http://www.inkscape.org/) -->

<svg
   width="210mm"
   height="297mm"
   viewBox="0 0 210 297"
   version="1.1"
   id="svg5"
   inkscape:version="1.1.2 (b8e25be833, 2022-02-05)"
   sodipodi:docname="flordesapato.svg"
   xmlns:inkscape="http://www.inkscape.org/namespaces/inkscape"
   xmlns:sodipodi="http://sodipodi.sourceforge.net/DTD/sodipodi-0.dtd"
   xmlns="http://www.w3.org/2000/svg"
   xmlns:svg="http://www.w3.org/2000/svg">
  <sodipodi:namedview
     id="namedview7"
     pagecolor="#ffffff"
     bordercolor="#666666"
     borderopacity="1.0"
     inkscape:pageshadow="2"
     inkscape:pageopacity="0.0"
     inkscape:pagecheckerboard="0"
     inkscape:document-units="mm"
     showgrid="false"
     inkscape:zoom="0.54660447"
     inkscape:cx="793.99278"
     inkscape:cy="327.47629"
     inkscape:window-width="1366"
     inkscape:window-height="705"
     inkscape:window-x="-8"
     inkscape:window-y="-8"
     inkscape:window-maximized="1"
     inkscape:current-layer="layer1"
     inkscape:snap-global="false" />
  <defs
     id="defs2" />
  <g
     inkscape:label="Camada 1"
     inkscape:groupmode="layer"
     id="layer1">
    <g
       id="g25593"
       inkscape:export-filename="C:\Users\User\Desktop\logoflordeliz.png"
       inkscape:export-xdpi="208.5"
       inkscape:export-ydpi="208.5">
      <path
         id="path213"
         style="fill:#ff2c4e;fill-opacity:1;fill-rule:evenodd;stroke:#ff2c4e;stroke-width:0.665001;stroke-linejoin:round;stroke-opacity:1"
         inkscape:transform-center-x="-0.14953302"
         inkscape:transform-center-y="-3.7013851"
         d="m 113.06981,88.306613 c -1.83378,3.200292 -8.32341,3.429527 -10.97146,1.438249 C 97.792382,86.506865 94.22609,73.666564 91.355265,63.789166 89.329015,56.81762 86.599118,43.560185 86.483247,38.778109 86.24785,29.063075 100.23923,6.2885959 104.90337,6.4022249 c 6.35209,0.154751 19.65081,21.3195211 20.01463,29.6255481 0.45277,10.336723 -4.75688,39.903175 -11.84819,52.27884 z"
         sodipodi:nodetypes="sssssss" />
      <path
         id="path4613"
         style="fill:#b78327;fill-opacity:1;fill-rule:evenodd;stroke:#ff2c4e;stroke-width:0.534063;stroke-linejoin:round;stroke-opacity:1"
         inkscape:transform-center-x="-0.12889923"
         inkscape:transform-center-y="-2.7694088"
         d="m 112.33368,83.437668 c -1.5807,2.394486 -7.17469,2.566006 -9.45729,1.076112 C 99.164689,82.091078 96.090582,72.483853 93.615974,65.093493 91.869368,59.877326 89.516229,49.957985 89.416348,46.379995 89.213437,39.111121 102.1251,30.664317 106.14556,30.749335 c 5.47542,0.115803 16.08751,7.358184 16.40113,13.572833 0.39027,7.734022 -4.10039,29.855915 -10.21301,39.1155 z"
         sodipodi:nodetypes="sssssss" />
      <path
         id="path4809"
         style="fill:#ff2c4e;fill-opacity:1;fill-rule:evenodd;stroke:#ff2c4e;stroke-width:0.665001;stroke-linejoin:round;stroke-opacity:1"
         inkscape:transform-center-x="-2.9335106"
         inkscape:transform-center-y="-1.2013025"
         d="m 123.97428,102.69921 c -3.68809,0.0507 -7.18891,-5.418549 -6.82291,-8.711493 0.59517,-5.354591 9.83199,-14.960486 16.87248,-22.459547 4.96928,-5.29288 14.99085,-14.391216 19.04803,-16.925198 8.24233,-5.147966 34.96745,-4.698151 37.24389,-0.625683 3.10028,5.546281 -8.34754,27.766792 -15.31168,32.308052 -8.66676,5.651583 -36.76778,16.217929 -51.02981,16.413869 z"
         sodipodi:nodetypes="sssssss" />
      <path
         id="path4811"
         style="fill:#b78327;fill-opacity:1;fill-rule:evenodd;stroke:#ff2cef;stroke-width:0.534063;stroke-linejoin:round;stroke-opacity:1"
         inkscape:transform-center-x="-2.8527262"
         inkscape:transform-center-y="-2.8061009"
         d="m 127.79044,99.587071 c -2.86568,-0.14165 -5.86087,-4.869344 -5.74041,-7.592494 0.19593,-4.428069 6.90046,-11.964544 12.00193,-17.856564 3.60069,-4.158605 10.94084,-11.233425 13.9697,-13.140737 6.15334,-3.874815 19.99645,2.939023 21.96984,6.442881 2.68755,4.771873 1.85574,17.592831 -3.33385,21.026272 -6.45835,4.272848 -27.78552,11.668521 -38.86721,11.120642 z"
         sodipodi:nodetypes="sssssss" />
      <path
         id="path4813"
         style="fill:#ff2c4e;fill-opacity:1;fill-rule:evenodd;stroke:#ff2c4e;stroke-width:0.665001;stroke-linejoin:round;stroke-opacity:1"
         inkscape:transform-center-x="-1.2052958"
         inkscape:transform-center-y="2.6403961"
         d="m 112.72293,115.11882 c -0.49222,-3.65542 4.51814,-7.78634 7.83119,-7.81757 5.38735,-0.0507 16.03081,7.96859 24.31947,14.05986 5.85012,4.29925 16.08373,13.15841 19.08556,16.88277 6.09848,7.56612 7.88605,35.12072 4.11566,37.86873 -5.13479,3.74254 -27.59879,-5.92863 -32.94186,-12.29827 -6.64923,-7.9272 -20.50662,-34.55968 -22.41001,-48.69548 z"
         sodipodi:nodetypes="ssssssss" />
      <path
         id="path4815"
         style="fill:#b78327;fill-opacity:1;fill-rule:evenodd;stroke:#ff2c4e;stroke-width:0.534063;stroke-linejoin:round;stroke-opacity:1"
         inkscape:transform-center-x="-2.415564"
         inkscape:transform-center-y="3.0457881"
         d="m 114.76479,116.7524 c -0.20226,-2.862 4.13202,-6.40207 6.84999,-6.60878 4.41963,-0.33605 12.70512,5.41713 19.16596,9.77585 4.56013,3.07651 12.46349,9.51603 14.71998,12.29451 4.5842,5.64471 1.41429,21.17263 -1.82784,23.55165 -4.41551,3.23995 -17.72782,2.98224 -21.75834,-1.75853 -5.01594,-5.89987 -16.36592,-26.18721 -17.14978,-37.25475 z"
         sodipodi:nodetypes="ssssssss" />
      <path
         id="path4817"
         style="fill:#ff2c4e;fill-opacity:1;fill-rule:evenodd;stroke:#ff2c4e;stroke-width:0.665001;stroke-linejoin:round;stroke-opacity:1"
         inkscape:transform-center-x="2.2829704"
         inkscape:transform-center-y="-2.2119129"
         d="m 95.937949,93.287987 c 1.60455,3.321131 -1.872683,8.805313 -5.011786,9.865253 -5.104458,1.72349 -17.713978,-2.58821 -27.485884,-5.799862 C 56.543197,95.086585 44.062003,89.849027 40.050796,87.242929 31.901798,81.948492 20.937533,58.015008 23.666382,54.230758 c 3.716412,-5.153749 28.770463,-4.647151 35.829426,-0.254715 8.784778,5.466339 30.237176,26.468948 36.442139,39.311944 z"
         sodipodi:nodetypes="ssssssss" />
      <path
         id="path4819"
         style="fill:#b78327;fill-opacity:1;fill-rule:evenodd;stroke:#ff2c4e;stroke-width:0.534063;stroke-linejoin:round;stroke-opacity:1"
         inkscape:transform-center-x="1.8822268"
         inkscape:transform-center-y="-3.9395864"
         d="m 91.504652,91.144593 c 1.082663,2.657058 -1.936239,7.369595 -4.45514,8.411265 -4.096039,1.693792 -13.759818,-1.1978 -21.255781,-3.33093 -5.290702,-1.505813 -14.80474,-5.168323 -17.81341,-7.10734 -6.112292,-3.939243 -5.787205,-19.365003 -3.445631,-22.634324 3.189002,-4.452408 15.16029,-9.116825 20.465244,-5.864575 6.601928,4.047429 22.317931,20.250911 26.50472,30.525884 z"
         sodipodi:nodetypes="sssssss" />
      <path
         id="path4821"
         style="fill:#ff2c4e;fill-opacity:1;fill-rule:evenodd;stroke:#ff2c4e;stroke-width:0.665001;stroke-linejoin:round;stroke-opacity:1"
         inkscape:transform-center-x="-5.2607236"
         inkscape:transform-center-y="11.07582"
         d="m 96.317233,107.87102 c 3.431473,-1.35269 8.641327,2.52362 9.464467,5.73291 1.33846,5.21867 -3.90087,17.47192 -7.832169,26.97725 -2.774449,6.70898 -8.927331,18.76526 -11.825087,22.57115 -5.88694,7.73178 -31.041514,16.76957 -34.611923,13.76634 -4.862556,-4.09004 -2.019841,-28.92398 2.886352,-35.63603 6.105663,-8.35304 28.648274,-28.18093 41.917919,-33.41176 z"
         sodipodi:nodetypes="ssssssss" />
      <path
         id="path4823"
         style="fill:#b78327;fill-opacity:1;fill-rule:evenodd;stroke:#ff2c40;stroke-width:0.534063;stroke-linejoin:round;stroke-opacity:1"
         inkscape:transform-center-x="-8.8545613"
         inkscape:transform-center-y="4.2198946"
         d="m 93.849484,112.13233 c 2.730483,-0.88128 7.204886,2.4799 8.055956,5.06948 1.38392,4.21085 -2.219353,13.63235 -4.905417,20.94851 -1.895889,5.1638 -6.257031,14.37854 -8.41484,17.23438 -4.383723,5.80176 -19.742377,4.32819 -22.828111,1.74954 -4.202461,-3.51193 -7.96201,-15.79743 -4.323049,-20.84545 4.52812,-6.28202 21.857477,-20.74702 32.415885,-24.15658 z"
         sodipodi:nodetypes="ssssssss" />
      <text
         xml:space="preserve"
         style="font-style:normal;font-weight:bold;font-size:50.8px;line-height:1.25;font-family:'Californian FB';fill:#ff2a2a;fill-opacity:1;stroke:none;stroke-width:0.264583;-inkscape-font-specification:'Californian FB Bold';font-stretch:normal;font-variant:normal"
         x="201.84842"
         y="111.81532"
         id="text2957"><tspan
           sodipodi:role="line"
           id="tspan2955"
           style="stroke-width:0.264583;-inkscape-font-specification:'Californian FB Bold';font-family:'Californian FB';font-weight:bold;font-style:normal;font-stretch:normal;font-variant:normal;fill:#ff2a2a;font-size:50.8px"
           x="201.84842"
           y="111.81532">Flor de Liz</tspan></text>
      <text
         xml:space="preserve"
         style="font-style:normal;font-weight:normal;font-size:19.75555556px;line-height:1.25;font-family:'Bookman Old Style';fill:#d40000;fill-opacity:1;stroke:none;stroke-width:0.264583;-inkscape-font-specification:'Bookman Old Style';font-stretch:normal;font-variant:normal"
         x="217.338"
         y="139.89015"
         id="text11777"><tspan
           sodipodi:role="line"
           id="tspan11775"
           style="stroke-width:0.264583;-inkscape-font-specification:'Bookman Old Style';font-family:'Bookman Old Style';font-weight:normal;font-style:normal;font-stretch:normal;font-variant:normal;fill:#d40000;font-size:19.75555556px"
           x="217.338"
           y="139.89015">Caçados Femininos</tspan></text>
    </g>
  </g>
</svg>
